<svg id="レイヤー_1" data-name="レイヤー 1" xmlns="http://www.w3.org/2000/svg" viewBox="0 0 518.62 570"><defs><style>.cls-1{fill:#707070;}</style></defs><g id="レイヤー_2" data-name="レイヤー 2"><g id="contents"><path class="cls-1" d="M391.07.09V0H115.53a30.09,30.09,0,0,0-30,30V163.63h40V40H351.07V167.47H478.53V530h-353V406.27h-40V540a30.09,30.09,0,0,0,30,30h373a30.09,30.09,0,0,0,30-30V127.47l.09-.1Zm0,127.38V56.66l70.8,70.81Z" transform="translate(0 0)"/><path class="cls-1" d="M317.53,193.73H10a10,10,0,0,0-10,10V366.27a10,10,0,0,0,10,10H317.53a10,10,0,0,0,10-10V203.73A10,10,0,0,0,317.53,193.73ZM93.05,307.79a17.67,17.67,0,0,0,12.35-5.64l.81-.88,16.12,8.08-.76,1.44C116.24,321,105,327,91.47,327c-11.31,0-21-4-27.87-11.44S52.94,297.49,52.89,285s3.75-23.07,10.71-30.59S80.16,243,91.47,243c13.52,0,24.77,6.07,30.1,16.24l.76,1.44-16.12,8.08-.81-.88a17.67,17.67,0,0,0-12.35-5.64c-11,0-18.08,9-18.14,22.8S82.09,307.79,93.05,307.79Zm74.69,19.6c-16.75,0-28.13-7.8-32.83-20.78l16.15-6c4,6.84,10.44,10.7,16.58,10.7,8.09,0,11.76-3.09,11.76-8.05,0-4.43-2.73-7.32-10.29-10.1L157.24,289c-12.5-4.43-18.9-10.62-18.9-22.59,0-13,10.71-23.83,29.09-23.82,14.81,0,24.68,5.26,29.41,16l-.27.19-15.63,5.81a15.44,15.44,0,0,0-12.78-6.52c-8.08,0-11.34,3.21-11.34,7.33,0,3.3,2.73,5.67,8.82,7.63l13,4.23c12.4,4,20.38,11.45,20.38,23.93C199,317.8,187.8,327.39,167.74,327.39Zm75.6,0c-16.75,0-28.13-7.8-32.84-20.78l16.16-6c4,6.84,10.43,10.7,16.57,10.7,8.09,0,11.77-3.09,11.76-8.05,0-4.43-2.72-7.32-10.29-10.1L232.84,289c-12.5-4.43-18.91-10.62-18.91-22.59,0-13,10.72-23.83,29.09-23.82,14.81,0,24.68,5.26,29.41,16l-.26.19-15.64,5.81a15.41,15.41,0,0,0-12.77-6.52c-8.09,0-11.34,3.21-11.34,7.33,0,3.3,2.73,5.67,8.82,7.63l13,4.23c12.4,4,20.38,11.45,20.38,23.93C274.64,317.8,263.4,327.39,243.34,327.39Z" transform="translate(0 0)"/></g></g></svg>