<svg id="Capa_1" data-name="Capa 1" xmlns="http://www.w3.org/2000/svg" viewBox="0 0 512 512"><defs><style>.cls-1{fill:#707070;}</style></defs><path class="cls-1" d="M0,0V512H512V0ZM482,482H30V30H482Z" transform="translate(0 0)"/><polygon class="cls-1" points="411.12 226.24 373.68 321.76 358.56 280.96 380.4 226.48 354.48 226.48 341.04 265.12 327.84 226.48 301.92 226.48 324 280.96 308.64 321.76 271.2 226.24 240.96 226.24 293.28 352 319.68 352 341.04 296.8 362.64 352 389.04 352 441.6 226.24 411.12 226.24"/><path class="cls-1" d="M148.32,181.6H86.4V352h61.92c59.43,0,84-44,84-85.44C232.32,214.75,198.25,181.6,148.32,181.6Zm0,141.36h-28.8V210.64h28.8c30.18,0,50.64,21.61,50.64,55.92C199,298.75,178.75,323,148.32,323Z" transform="translate(0 0)"/></svg>