<svg id="レイヤー_1" data-name="レイヤー 1" xmlns="http://www.w3.org/2000/svg" viewBox="0 0 518.62 570"><defs><style>.cls-1{fill:#707070;}</style></defs><g id="レイヤー_2" data-name="レイヤー 2"><g id="contents"><path class="cls-1" d="M391.07.09V0H115.53a30.09,30.09,0,0,0-30,30V163.63h40V40H351.07V167.47H478.53V530h-353V406.27h-40V540a30.09,30.09,0,0,0,30,30h373a30.09,30.09,0,0,0,30-30V127.47l.09-.1Zm0,127.38V56.66l70.8,70.81Z" transform="translate(0 0)"/><path class="cls-1" d="M317.53,193.73H10a10,10,0,0,0-10,10V366.27a10,10,0,0,0,10,10H317.53a10,10,0,0,0,10-10V203.73A10,10,0,0,0,317.53,193.73ZM85.19,321.27H66.59V293.14H48.13v28.13H29.71V248.73H48.13v25.89H66.59V248.73h18.6Zm67.22-58.45H134.07v58.53H116.73V262.82H98.48V248.65h53.93Zm86,58.53H222.67V281.69l-12.46,39.66h-16.3l-12.47-39.66v39.66H165.71v-72.7h21.08l15.27,48.57,15.27-48.57h21.08Zm59.42-.12h-46V248.77h16.5v57.32h29.54Z" transform="translate(0 0)"/></g></g></svg>