<svg id="レイヤー_1" data-name="レイヤー 1" xmlns="http://www.w3.org/2000/svg" viewBox="0 0 420 420"><defs><style>.cls-1{fill:#707070;}</style></defs><path class="cls-1" d="M66.68,40A26.84,26.84,0,0,0,40,66.68V433.32A26.84,26.84,0,0,0,66.68,460H433.32A26.82,26.82,0,0,0,460,433.32V66.68A26.82,26.82,0,0,0,433.32,40Zm0,20H433.32A6.65,6.65,0,0,1,440,66.68V433.32a6.65,6.65,0,0,1-6.68,6.68H66.68A6.65,6.65,0,0,1,60,433.32V66.68A6.65,6.65,0,0,1,66.68,60ZM230,230V355.74C230,375,222.7,380,210,380c-13.28,0-22.5-8.28-28.59-19L150,380c9.1,19.26,31.41,40,62.34,40,34.22,0,57.66-18.2,57.66-58.16V230Zm124.53,0c-34.06,0-55.9,21.8-55.9,50.43,0,31.05,18.32,45.74,45.86,57.46L354,342c17.39,7.62,26,12.27,26,25.35,0,10.9-8.28,18.79-24.1,18.79-18.83,0-27.74-12.77-35.9-26.13l-30,20c11.21,22.15,31.33,40,66.76,40C393,420,420,401.17,420,366.84c0-31.88-18.28-46.06-50.74-60l-9.53-4.06c-16.37-7.11-23.48-11.72-23.48-23.16,0-9.26,7.11-16.37,18.28-16.37,11,0,18,4.65,24.53,16.37l29.73-19.06C396.25,238.44,378.79,230,354.53,230Z" transform="translate(-40 -40)"/></svg>