<svg id="レイヤー_1" data-name="レイヤー 1" xmlns="http://www.w3.org/2000/svg" viewBox="0 0 439.92 440.01"><defs><style>.cls-1{fill:#707070;}</style></defs><path class="cls-1" d="M298.67,30.08a11.19,11.19,0,0,0-3.12.94c-8.6,4.25-18.36,16.91-20.24,19.41a4.22,4.22,0,0,0-.31.47,89.68,89.68,0,0,0-15,49,98.61,98.61,0,0,0,7.7,38.91c12.18,29.26,37.5,53.48,67.61,64.8l3.75,1.33c.16.08,1.64.55,1.88.59l1.09.39a44,44,0,0,0,4.73,1.33A138.75,138.75,0,0,0,369.69,210c1.25,0,2.5,0,3.75,0,54.8,0,76.05-38.67,83.12-51.56a33.39,33.39,0,0,1,1.68-2.89s0,0,0-.08a10,10,0,1,0-16.52-11.25h0c-14.61,21.52-39.61,28.05-74.26,19.45a69.64,69.64,0,0,1-7.89-2.54,96.59,96.59,0,0,1-9.61-4,101.67,101.67,0,0,1-16.91-10.59c-30.47-23.63-42.39-72.81-24.57-101.21a10,10,0,0,0-9.81-15.23ZM210.08,50a9.76,9.76,0,0,0-6.45,2.27c-15.11,12.3-30.58,32.46-31.25,33.28a3,3,0,0,1-.27.43c-27.34,39.8-29.41,96.44-5.23,144.29a178.7,178.7,0,0,0,12.65,21.45l1.37,1.95c3.87,5.67,8.2,12.07,13.75,17.07,1.91,2.19,4,4.3,6,6.33l1,1,.82.82c2.07,2,4.18,4,6.37,6h0a4,4,0,0,0,.58.59c2.46,2.19,5,4.26,8.28,6.87l.9.67c2.58,2.07,5.2,4,7.89,5.94l.82.58c.94.63,1.88,1.21,2.82,1.88l.93.62,1.1.7c2,1.33,3.94,2.54,6.72,4.14,1.79,1.1,3.71,2.19,5,2.82.54.31,1.13.62,2.5,1.36l3,1.61,1,.46c2,1,4.06,2,6.13,2.93l3.17,1.41c2.07.9,4.18,1.76,6.75,2.74l1.18.42c.07.08,1,.43,1.13.47,1.87.67,3.79,1.33,5.7,2l4.38,1.44a48,48,0,0,0,7.5,2.07A241,241,0,0,0,325.78,330c1.49,0,3,0,4.42,0,110.39-2.42,139.1-96.21,139.37-97.15a10,10,0,0,0-17.85-8.44c-28,40.86-80.86,58.13-134.73,43.91-2.5-.62-4.92-1.33-7.93-2.3-.51-.16-.94-.32-1.76-.63-1.75-.55-3.47-1.13-5.42-1.87l-2.78-1.06c-1.6-.62-3.2-1.25-5.15-2.11l-1.29-.58c-2.39-1-4.69-2.15-6.76-3.17l-5.7-3c-1.29-.62-2.43-1.32-4.18-2.38l-1-.55-1-.58c-1.44-.86-2.89-1.76-4.22-2.7l-.93-.58c-.08,0-.86-.59-.94-.67-1.17-.74-2.31-1.48-3.4-2.18-2.42-1.72-4.8-3.52-7.58-5.71l-1.09-.9c-25.78-20.58-44.85-48.08-53.79-77.57C193.79,132.7,200,97.27,218.63,65a10,10,0,0,0-8.55-15ZM100,80a10.06,10.06,0,0,0-6.72,2.58c-19.1,17.15-33.4,39.37-35,41.91C17.5,184,25.39,276.45,53.44,333c.54,1.17,1.13,2.3,1.72,3.44l.39.62a18.17,18.17,0,0,0,1.29,2.54,10.27,10.27,0,0,0,1,1.8c.47,1,.94,1.83,1.8,3.32l3.2,5.51c.47.74.94,1.52,1.1,1.79.62,1,1.29,2.07,2,3.13l1.56,2.5c.47.74.94,1.4,1.25,1.79,1.56,2.43,3.13,4.85,4.85,7.15a1.32,1.32,0,0,0,.23.28l.63.86c1.4,2,2.85,4,4.14,5.58l5.7,7.23c.08.08.7.82.74.9l.82.93c1.72,2.11,3.56,4.22,5.39,6.25.28.32.55.59.82.9,1.76,1.92,3.56,3.83,5.43,5.82l1.8,1.72c1.48,1.56,3,3.09,4.53,4.53,0,0,.74.74.74.74l1.56,1.45c1.88,1.8,3.83,3.59,5.32,4.84.08.12,1.48,1.33,1.6,1.41,1.83,1.64,3.67,3.2,5.55,4.73l9.57,7.57c1.6,1.18,3.24,2.35,5.11,3.72.63.46,1.29.93,2,1.36a5.91,5.91,0,0,0,.78.59l7.18,4.8c2.62,1.72,5.24,3.32,8.44,5.24l1.72,1c2,1.18,4,2.35,5.94,3.36,1.13.63,2.26,1.18,3.24,1.68,1.37.75,2.85,1.57,5.12,2.66.19.12,1.8.9,2,1,2.27,1.13,4.57,2.18,7.46,3.47a10.3,10.3,0,0,0,.94.47c2.65,1.13,5.23,2.23,8.63,3.6.55.23,1.1.42,1.21.46,2.42.94,5,1.88,7,2.62l1.45.59c2.77.93,5.51,1.83,9,2.93.59.19,1.21.39,1.29.39l2,.62a71.5,71.5,0,0,0,7.46,2A301.66,301.66,0,0,0,270,470h0c143.24,0,188.87-115.27,189.34-116.45A10,10,0,0,0,442,344c-36.76,48.39-106.09,66.36-185.47,48.12-1.91-.47-3.86-1-5.78-1.6L247,389.34c-2.54-.79-5.08-1.64-7.54-2.5,0,0-1.17-.43-1.17-.43-2.19-.75-4.37-1.61-6.29-2.35l-2.19-.86c-2.42-1-4.84-2-7.18-3l-1.37-.59c-2.11-1-4.14-1.91-6.17-2.93-.16-.08-1.76-.86-1.92-.9-1.4-.7-2.81-1.44-4.61-2.42L200.43,369a27.4,27.4,0,0,0-2.5-1.49c-2.46-1.52-5-3-7.5-4.65-.59-.35-1.09-.74-2.07-1.4-1.72-1.1-3.4-2.23-5.86-4l-1-.7c-1.68-1.17-3.32-2.42-4.68-3.44-.86-.62-1.72-1.33-3.13-2.38-1.25-1-2.5-1.92-3.67-2.85l-2.19-1.8c-1.83-1.49-3.55-3.05-5.35-4.57a5,5,0,0,0-.7-.59c-2-1.83-4-3.67-6.45-6l-7.07-7c-1.72-1.75-3.44-3.55-5.39-5.7-1.8-2-3.51-4-5.82-6.72l-4.22-5.15a24.71,24.71,0,0,0-1.72-2.27c-1.44-1.95-2.89-3.87-4.33-5.9C87.89,248.79,77.73,136.91,108.05,95.94A10,10,0,0,0,100,80Z" transform="translate(-30.05 -29.99)"/></svg>