<svg id="レイヤー_1" data-name="レイヤー 1" xmlns="http://www.w3.org/2000/svg" viewBox="0 0 398.74 306.58"><defs><style>.cls-1{fill:#91434a;}.cls-2{fill:none;stroke:#fff;stroke-width:10px;}.cls-3{fill:#373839;}</style></defs><path class="cls-1" d="M682.37,240.64c6.42,12,18,37.66,18,67.14s-11.61,55.16-18,67.15c-6.43-12-18-37.66-18-67.15s11.61-55.15,18-67.14m0-9.93s-23,34.51-23,77.07,23,77.08,23,77.08,23-34.51,23-77.08-23-77.07-23-77.07Z" transform="translate(-483.63 -230.71)"/><path class="cls-1" d="M612,260c11.56,7.17,34.48,23.66,49.18,49.12s17.52,53.56,18,67.16c-11.56-7.17-34.48-23.66-49.18-49.12S612.4,273.57,612,260m-5-8.61s-2.69,41.4,18.59,78.27,58.48,55.23,58.48,55.23,2.7-41.4-18.59-78.27S607,251.36,607,251.36Z" transform="translate(-483.63 -230.71)"/><path class="cls-1" d="M559.17,312.73c13.92.41,41.66,3.25,67.17,18s42,37.65,49.14,49.2c-13.92-.41-41.66-3.25-67.17-18s-42-37.65-49.14-49.21m-3.91-5.06c-3,0-4.68.11-4.68.11S569,345,605.81,366.27c29.42,17,61.73,18.7,73.58,18.7,3,0,4.68-.11,4.68-.11s-18.37-37.2-55.23-58.48c-29.42-17-61.73-18.71-73.58-18.71Z" transform="translate(-483.63 -230.71)"/><path class="cls-1" d="M607,366.83c29.42,0,55.16,11.61,67.14,18-12,6.43-37.65,18-67.14,18s-55.16-11.61-67.15-18c12-6.42,37.66-18,67.15-18m0-5c-42.57,0-77.08,23-77.08,23s34.51,23,77.08,23,77.07-23,77.07-23-34.5-23-77.07-23Z" transform="translate(-483.63 -230.71)"/><path class="cls-1" d="M676.15,389.14C669,400.69,652.5,423.63,627,438.34s-53.25,17.57-67.17,18c7.16-11.55,23.65-34.49,49.14-49.2s53.24-17.57,67.16-18m3.92-5.06c-11.85,0-44.16,1.71-73.58,18.7-36.87,21.28-55.24,58.48-55.24,58.48s1.69.11,4.69.11c11.84,0,44.15-1.71,73.58-18.7,36.86-21.28,55.23-58.48,55.23-58.48s-1.69-.11-4.68-.11Z" transform="translate(-483.63 -230.71)"/><path class="cls-1" d="M679.15,391.74c-.42,13.58-3.22,41.63-18,67.17S623.55,500.87,612,508c.41-13.58,3.21-41.63,18-67.17s37.63-42,49.19-49.13m5-8.6s-37.2,18.37-58.48,55.23S607,516.64,607,516.64s37.19-18.37,58.48-55.23,18.59-78.27,18.59-78.27Z" transform="translate(-483.63 -230.71)"/><path class="cls-1" d="M682.4,393.08c6.42,12,18,37.73,18,67.14s-11.61,55.15-18,67.14c-6.42-12-18-37.66-18-67.14s11.6-55.14,18-67.14m0-9.94s-23,34.51-23,77.08,23,77.07,23,77.07,23-34.51,23-77.07-23-77.08-23-77.08Z" transform="translate(-483.63 -230.71)"/><path class="cls-1" d="M687.37,391.75c11.56,7.17,34.48,23.66,49.18,49.12s17.52,53.56,18,67.16c-11.56-7.17-34.48-23.66-49.18-49.12s-17.52-53.56-18-67.16m-5-8.61s-2.69,41.4,18.59,78.27,58.48,55.23,58.48,55.23,2.69-41.4-18.59-78.27-58.48-55.23-58.48-55.23Z" transform="translate(-483.63 -230.71)"/><path class="cls-1" d="M690.56,388.55c13.92.41,41.65,3.25,67.16,18s42,37.65,49.14,49.21c-13.92-.41-41.66-3.25-67.17-18s-42-37.65-49.13-49.2m-3.92-5.06c-3,0-4.68.11-4.68.11s18.37,37.2,55.23,58.48c29.42,17,61.74,18.71,73.58,18.71,3,0,4.69-.11,4.69-.11s-18.37-37.2-55.24-58.49c-29.42-17-61.73-18.7-73.58-18.7Z" transform="translate(-483.63 -230.71)"/><path class="cls-1" d="M758.89,366.19c29.41,0,55.15,11.61,67.14,18-12,6.43-37.66,18-67.14,18s-55.16-11.61-67.15-18c12-6.42,37.66-18,67.15-18m0-5c-42.57,0-77.08,23-77.08,23s34.51,23,77.08,23,77.07-23,77.07-23-34.51-23-77.07-23Z" transform="translate(-483.63 -230.71)"/><path class="cls-1" d="M806.71,312.09c-7.16,11.56-23.65,34.49-49.13,49.21s-53.25,17.56-67.17,18c7.16-11.56,23.65-34.49,49.13-49.2s53.25-17.57,67.17-18m3.91-5.06c-11.84,0-44.15,1.72-73.58,18.71-36.86,21.28-55.23,58.48-55.23,58.48s1.69.11,4.69.11c11.84,0,44.15-1.72,73.58-18.7,36.86-21.29,55.23-58.49,55.23-58.49s-1.69-.11-4.69-.11Z" transform="translate(-483.63 -230.71)"/><path class="cls-1" d="M753.14,259.1c-.43,13.6-3.24,41.69-17.95,67.15s-37.62,42-49.18,49.13c.43-13.6,3.25-41.69,18-67.16s37.62-42,49.18-49.12m5-8.61s-37.19,18.37-58.48,55.23S681,384,681,384s37.2-18.37,58.48-55.24,18.59-78.26,18.59-78.26Z" transform="translate(-483.63 -230.71)"/><path class="cls-1" d="M588.09,281.68c13,3.92,39.37,13.88,60.22,34.73S679.1,363.63,683,376.65c-13-3.92-39.38-13.89-60.23-34.74S592,294.7,588.09,281.68m-7-7s8.12,40.69,38.22,70.79,70.78,38.21,70.78,38.21S682,343,651.85,312.88s-70.79-38.22-70.79-38.22Z" transform="translate(-483.63 -230.71)"/><path class="cls-1" d="M586.89,342.1a129.25,129.25,0,0,1,33.39,4.2c28.42,7.61,50.27,25.49,60.19,34.8a161,161,0,0,1-36.13,4.23,129.25,129.25,0,0,1-33.39-4.2c-28.42-7.61-50.27-25.49-60.19-34.8a161,161,0,0,1,36.13-4.23m0-5a156.93,156.93,0,0,0-45.72,6.67s27.37,31.17,68.48,42.19a134.52,134.52,0,0,0,34.69,4.37,156.93,156.93,0,0,0,45.72-6.67s-27.37-31.17-68.48-42.19a134.08,134.08,0,0,0-34.69-4.37Z" transform="translate(-483.63 -230.71)"/><path class="cls-1" d="M644.34,382a160.52,160.52,0,0,1,36.13,4.23c-9.92,9.31-31.77,27.18-60.19,34.8a129.25,129.25,0,0,1-33.39,4.19A160.52,160.52,0,0,1,550.76,421c9.92-9.3,31.77-27.18,60.19-34.8A129.25,129.25,0,0,1,644.34,382m0-5a134.13,134.13,0,0,0-34.69,4.37c-41.11,11-68.48,42.19-68.48,42.19a157.23,157.23,0,0,0,45.72,6.66,134.54,134.54,0,0,0,34.69-4.36c41.11-11,68.48-42.2,68.48-42.2A157.23,157.23,0,0,0,644.34,377Z" transform="translate(-483.63 -230.71)"/><path class="cls-1" d="M683.05,390.69c-3.92,13-13.89,39.37-34.74,60.22s-47.21,30.79-60.23,34.73c3.92-13,13.88-39.38,34.73-60.23s47.21-30.79,60.24-34.72m7-7s-40.68,8.12-70.78,38.22-38.22,70.78-38.22,70.78,40.69-8.11,70.79-38.21,38.21-70.79,38.21-70.79Z" transform="translate(-483.63 -230.71)"/><path class="cls-1" d="M687.5,392.3c3.11,13.23,7.67,41,0,69.53s-25.49,50.26-34.8,60.18c-3.1-13.25-7.65-41.11,0-69.52s25.49-50.27,34.8-60.19m2.57-9.59s-31.18,27.37-42.2,68.49,2.3,80.41,2.3,80.41,31.18-27.37,42.2-68.49-2.3-80.41-2.3-80.41Z" transform="translate(-483.63 -230.71)"/><path class="cls-1" d="M689.74,392c9.3,9.9,27.16,31.71,34.79,60.2s3.06,56.28,0,69.52c-9.3-9.9-27.15-31.71-34.79-60.19s-3.06-56.28,0-69.53m-2.58-9.59s-13.31,39.3-2.3,80.41,42.2,68.49,42.2,68.49,13.32-39.29,2.3-80.41-42.2-68.49-42.2-68.49Z" transform="translate(-483.63 -230.71)"/><path class="cls-1" d="M694.19,389.44c13,3.92,39.37,13.88,60.22,34.73s30.79,47.22,34.73,60.24c-13-3.92-39.38-13.88-60.23-34.74s-30.79-47.21-34.72-60.23m-7-7s8.12,40.69,38.22,70.79,70.78,38.21,70.78,38.21-8.11-40.68-38.21-70.78-70.79-38.22-70.79-38.22Z" transform="translate(-483.63 -230.71)"/><path class="cls-1" d="M732.88,380.76a128.89,128.89,0,0,1,33.4,4.2c28.41,7.61,50.27,25.49,60.19,34.8A161.21,161.21,0,0,1,790.34,424a129.39,129.39,0,0,1-33.4-4.19c-28.41-7.61-50.27-25.49-60.18-34.8a160.42,160.42,0,0,1,36.12-4.23m0-5a157.23,157.23,0,0,0-45.72,6.66s27.37,31.18,68.49,42.2A134.49,134.49,0,0,0,790.34,429a157.23,157.23,0,0,0,45.72-6.66s-27.37-31.18-68.49-42.19a134.08,134.08,0,0,0-34.69-4.37Z" transform="translate(-483.63 -230.71)"/><path class="cls-1" d="M790.36,341.5a160.42,160.42,0,0,1,36.12,4.23c-9.92,9.31-31.77,27.18-60.19,34.8a129.25,129.25,0,0,1-33.39,4.19,160.52,160.52,0,0,1-36.13-4.23c9.92-9.31,31.78-27.18,60.19-34.8a129.33,129.33,0,0,1,33.4-4.19m0-5a134.43,134.43,0,0,0-34.69,4.36c-41.12,11-68.49,42.2-68.49,42.2a157.23,157.23,0,0,0,45.72,6.66,134.54,134.54,0,0,0,34.69-4.36c41.11-11,68.49-42.2,68.49-42.2a157.31,157.31,0,0,0-45.72-6.66Z" transform="translate(-483.63 -230.71)"/><path class="cls-1" d="M789.49,281.63c-3.92,13-13.88,39.37-34.73,60.22s-47.2,30.79-60.22,34.72c3.94-13,13.93-39.43,34.72-60.22s47.21-30.79,60.23-34.72m7-7s-40.69,8.11-70.79,38.21-38.21,70.79-38.21,70.79,40.69-8.11,70.79-38.21,38.21-70.79,38.21-70.79Z" transform="translate(-483.63 -230.71)"/><path class="cls-1" d="M724.84,244.3c3.11,13.22,7.67,41,0,69.52s-25.49,50.26-34.8,60.18c-3.1-13.25-7.65-41.11,0-69.52s25.49-50.27,34.8-60.18m2.57-9.6s-31.18,27.37-42.2,68.49,2.3,80.41,2.3,80.41,31.18-27.37,42.19-68.49-2.29-80.41-2.29-80.41Z" transform="translate(-483.63 -230.71)"/><path class="cls-1" d="M651.19,244.67c9.31,9.9,27.16,31.71,34.79,60.2s3.06,56.26,0,69.51c-9.31-9.92-27.18-31.77-34.79-60.18s-3.06-56.28,0-69.53m-2.57-9.59s-13.32,39.3-2.3,80.41S688.51,384,688.51,384s13.32-39.29,2.3-80.41-42.19-68.49-42.19-68.49Z" transform="translate(-483.63 -230.71)"/><path d="M552.88,351.38c-5.65.79-6.65,1.19-14.48,9-5.45,5.46-13.38,13.69-18.54,19,6.15,8.43,16.66,22.41,21.71,28.26,4.76,5.45,8.63,7.93,13.59,7.93v3.07a48.64,48.64,0,0,1-6.94.6c-6.15,0-9.62-1.59-15.57-8.73-3.87-4.66-11.2-15.07-18.64-25.88h-5.75v21.42c0,7.63.3,7.93,6,8.72l5.16.7v3.37c-4.17-.3-9.82-.5-15.37-.5s-11.21.2-15.37.5v-3.37l5.16-.7c5.55-.79,5.94-1.09,5.94-8.72V360.8c0-7.73-.39-7.93-5.94-8.72l-5.16-.7V348c4.07.3,9.91.5,15.37.5s11.2-.2,15.37-.5v3.37l-5.16.7c-5.65.79-6,1-6,8.72v20.62c5-1.19,6.45-2,8.63-4.36,5.05-5.35,9.71-10.61,14.47-16.16,3.47-4,5.16-6,5.16-7.34s-1.29-1.68-3.87-2l-3.57-.4V348c4,.3,7,.5,12.69.5,3.87,0,8.63-.2,12.59-.5v3.17Z" transform="translate(-483.63 -230.71)"/><path d="M590.35,351.38l-5.15.7c-5.66.79-6,1-6,8.72v45.31c0,7.63.29,7.93,6,8.72l5.15.7v3.37c-4.16-.3-9.81-.5-15.37-.5s-11.2.2-15.36.5v-3.37l5.15-.7c5.55-.79,6-1.09,6-8.72V360.8c0-7.73-.4-7.93-6-8.72l-5.15-.7V348c4.06.3,9.91.5,15.36.5s11.21-.2,15.37-.5Z" transform="translate(-483.63 -230.71)"/><path d="M663.52,351.38c-5.65.79-6.64,1.19-14.48,9-5.45,5.46-13.38,13.69-18.54,19,6.15,8.43,16.66,22.41,21.72,28.26,4.75,5.45,8.62,7.93,13.58,7.93v3.07a48.64,48.64,0,0,1-6.94.6c-6.15,0-9.62-1.59-15.57-8.73-3.86-4.66-11.2-15.07-18.64-25.88H618.9v21.42c0,7.63.3,7.93,6,8.72l5.16.7v3.37c-4.17-.3-9.82-.5-15.37-.5s-11.2.2-15.37.5v-3.37l5.16-.7c5.55-.79,6-1.09,6-8.72V360.8c0-7.73-.4-7.93-6-8.72l-5.16-.7V348c4.07.3,9.92.5,15.37.5s11.2-.2,15.37-.5v3.37l-5.16.7c-5.65.79-6,1-6,8.72v20.62c5-1.19,6.45-2,8.63-4.36,5.06-5.35,9.72-10.61,14.47-16.16,3.47-4,5.16-6,5.16-7.34s-1.29-1.68-3.87-2l-3.57-.4V348c4,.3,7,.5,12.69.5,3.87,0,8.63-.2,12.6-.5v3.17Z" transform="translate(-483.63 -230.71)"/><path d="M739.16,351.88c-5.25.79-5.45,1.19-5.45,8.33v32.42c0,17.25-9.22,27.36-27.76,27.36-17.85,0-26.27-9-26.27-26.57V360.8c0-7.14-.2-7.93-5.46-8.82l-4-.6V348c3.67.3,9.22.5,14.27.5,5.26,0,13.49-.2,17.36-.5v3.37l-7.34,1c-5.75.8-6,1.29-6,8.43v31.83c0,15.36,6.94,23,21,23,10.61,0,18.64-6.84,18.64-22.91V360.21c0-7.14-.3-7.34-6-8l-7-.79V348c4.07.3,10.21.5,15.27.5,5.25,0,8.33-.2,11.9-.5v3.37Z" transform="translate(-483.63 -230.71)"/><path d="M784.08,348c4,.3,8.22.5,12.69.5,3.47,0,7.13-.1,11.3-.5v3.37l-1.39.2c-4.46.59-4.76.69-10.11,9.22-4.36,6.94-11.7,20-14.87,25.88v19.53c0,7.14.29,7.93,5.45,8.62l5.65.8v3.27c-3.57-.3-10.31-.5-15.66-.5-4.57,0-11.51.2-15.08.5v-3.27l5.66-.8c5.15-.69,5.45-1.48,5.45-8.62V386.58L758,359.81c-4.36-7.54-4.56-7.83-9.22-8.33l-1.09-.1V348c4.16.3,8.23.5,13.48.5s10.21-.2,14.18-.5v3.37l-6.34.4c-2.38.1-3.67.69-3.67,2s.69,3,2.28,6.05l11.89,23.1c4.47-8.13,7.94-15.27,11.11-22.51,1.49-3.37,2.28-5.35,2.28-6.34,0-1.59-1.29-2-4.56-2.28l-4.26-.4Z" transform="translate(-483.63 -230.71)"/><path d="M877.37,415.53v3.37c-3.77-.3-9.12-.5-14.18-.5-5.35,0-10.51.2-14.27.5v-3.37l7.33-.89c2.88-.4,3.77-1.19,3.77-3.38,0-1.68-.6-3.76-2.08-8.32l-3.67-11.21h-23.8l-3.66,11c-1.49,4.46-2.09,6.84-2.09,8.52,0,2.28,1.09,3.18,4.27,3.57l5.55.7v3.37c-4.17-.3-8.43-.5-13.48-.5-4.57,0-7.24.2-11,.5v-3.37l1.39-.2c4.86-.69,5.15-1.39,10.11-14.48,6.35-16.65,12.89-34.4,19.33-52.84h7c7,20.72,16.06,46.4,18.84,54.13,4.36,12.2,4.86,12.5,9.42,13.29Zm-24.49-27.76-10.51-31.63c-3.57,10.31-7.34,21.51-10.61,31.63Z" transform="translate(-483.63 -230.71)"/><path class="cls-2" d="M552.88,351.38c-5.65.79-6.65,1.19-14.48,9-5.45,5.46-13.38,13.69-18.54,19,6.15,8.43,16.66,22.41,21.71,28.26,4.76,5.45,8.63,7.93,13.59,7.93v3.07a48.64,48.64,0,0,1-6.94.6c-6.15,0-9.62-1.59-15.57-8.73-3.87-4.66-11.2-15.07-18.64-25.88h-5.75v21.42c0,7.63.3,7.93,6,8.72l5.16.7v3.37c-4.17-.3-9.82-.5-15.37-.5s-11.21.2-15.37.5v-3.37l5.16-.7c5.55-.79,5.94-1.09,5.94-8.72V360.8c0-7.73-.39-7.93-5.94-8.72l-5.16-.7V348c4.07.3,9.91.5,15.37.5s11.2-.2,15.37-.5v3.37l-5.16.7c-5.65.79-6,1-6,8.72v20.62c5-1.19,6.45-2,8.63-4.36,5.05-5.35,9.71-10.61,14.47-16.16,3.47-4,5.16-6,5.16-7.34s-1.29-1.68-3.87-2l-3.57-.4V348c4,.3,7,.5,12.69.5,3.87,0,8.63-.2,12.59-.5v3.17Z" transform="translate(-483.63 -230.71)"/><path class="cls-2" d="M590.35,351.38l-5.15.7c-5.66.79-6,1-6,8.72v45.31c0,7.63.29,7.93,6,8.72l5.15.7v3.37c-4.16-.3-9.81-.5-15.37-.5s-11.2.2-15.36.5v-3.37l5.15-.7c5.55-.79,6-1.09,6-8.72V360.8c0-7.73-.4-7.93-6-8.72l-5.15-.7V348c4.06.3,9.91.5,15.36.5s11.21-.2,15.37-.5Z" transform="translate(-483.63 -230.71)"/><path class="cls-2" d="M663.52,351.38c-5.65.79-6.64,1.19-14.48,9-5.45,5.46-13.38,13.69-18.54,19,6.15,8.43,16.66,22.41,21.72,28.26,4.75,5.45,8.62,7.93,13.58,7.93v3.07a48.64,48.64,0,0,1-6.94.6c-6.15,0-9.62-1.59-15.57-8.73-3.86-4.66-11.2-15.07-18.64-25.88H618.9v21.42c0,7.63.3,7.93,6,8.72l5.16.7v3.37c-4.17-.3-9.82-.5-15.37-.5s-11.2.2-15.37.5v-3.37l5.16-.7c5.55-.79,6-1.09,6-8.72V360.8c0-7.73-.4-7.93-6-8.72l-5.16-.7V348c4.07.3,9.92.5,15.37.5s11.2-.2,15.37-.5v3.37l-5.16.7c-5.65.79-6,1-6,8.72v20.62c5-1.19,6.45-2,8.63-4.36,5.06-5.35,9.72-10.61,14.47-16.16,3.47-4,5.16-6,5.16-7.34s-1.29-1.68-3.87-2l-3.57-.4V348c4,.3,7,.5,12.69.5,3.87,0,8.63-.2,12.6-.5v3.17Z" transform="translate(-483.63 -230.71)"/><path class="cls-2" d="M739.16,351.88c-5.25.79-5.45,1.19-5.45,8.33v32.42c0,17.25-9.22,27.36-27.76,27.36-17.85,0-26.27-9-26.27-26.57V360.8c0-7.14-.2-7.93-5.46-8.82l-4-.6V348c3.67.3,9.22.5,14.27.5,5.26,0,13.49-.2,17.36-.5v3.37l-7.34,1c-5.75.8-6,1.29-6,8.43v31.83c0,15.36,6.94,23,21,23,10.61,0,18.64-6.84,18.64-22.91V360.21c0-7.14-.3-7.34-6-8l-7-.79V348c4.07.3,10.21.5,15.27.5,5.25,0,8.33-.2,11.9-.5v3.37Z" transform="translate(-483.63 -230.71)"/><path class="cls-2" d="M784.08,348c4,.3,8.22.5,12.69.5,3.47,0,7.13-.1,11.3-.5v3.37l-1.39.2c-4.46.59-4.76.69-10.11,9.22-4.36,6.94-11.7,20-14.87,25.88v19.53c0,7.14.29,7.93,5.45,8.62l5.65.8v3.27c-3.57-.3-10.31-.5-15.66-.5-4.57,0-11.51.2-15.08.5v-3.27l5.66-.8c5.15-.69,5.45-1.48,5.45-8.62V386.58L758,359.81c-4.36-7.54-4.56-7.83-9.22-8.33l-1.09-.1V348c4.16.3,8.23.5,13.48.5s10.21-.2,14.18-.5v3.37l-6.34.4c-2.38.1-3.67.69-3.67,2s.69,3,2.28,6.05l11.89,23.1c4.47-8.13,7.94-15.27,11.11-22.51,1.49-3.37,2.28-5.35,2.28-6.34,0-1.59-1.29-2-4.56-2.28l-4.26-.4Z" transform="translate(-483.63 -230.71)"/><path class="cls-2" d="M877.37,415.53v3.37c-3.77-.3-9.12-.5-14.18-.5-5.35,0-10.51.2-14.27.5v-3.37l7.33-.89c2.88-.4,3.77-1.19,3.77-3.38,0-1.68-.6-3.76-2.08-8.32l-3.67-11.21h-23.8l-3.66,11c-1.49,4.46-2.09,6.84-2.09,8.52,0,2.28,1.09,3.18,4.27,3.57l5.55.7v3.37c-4.17-.3-8.43-.5-13.48-.5-4.57,0-7.24.2-11,.5v-3.37l1.39-.2c4.86-.69,5.15-1.39,10.11-14.48,6.35-16.65,12.89-34.4,19.33-52.84h7c7,20.72,16.06,46.4,18.84,54.13,4.36,12.2,4.86,12.5,9.42,13.29Zm-24.49-27.76-10.51-31.63c-3.57,10.31-7.34,21.51-10.61,31.63Z" transform="translate(-483.63 -230.71)"/><path class="cls-3" d="M552.88,351.38c-5.65.79-6.65,1.19-14.48,9-5.45,5.46-13.38,13.69-18.54,19,6.15,8.43,16.66,22.41,21.71,28.26,4.76,5.45,8.63,7.93,13.59,7.93v3.07a48.64,48.64,0,0,1-6.94.6c-6.15,0-9.62-1.59-15.57-8.73-3.87-4.66-11.2-15.07-18.64-25.88h-5.75v21.42c0,7.63.3,7.93,6,8.72l5.16.7v3.37c-4.17-.3-9.82-.5-15.37-.5s-11.21.2-15.37.5v-3.37l5.16-.7c5.55-.79,5.94-1.09,5.94-8.72V360.8c0-7.73-.39-7.93-5.94-8.72l-5.16-.7V348c4.07.3,9.91.5,15.37.5s11.2-.2,15.37-.5v3.37l-5.16.7c-5.65.79-6,1-6,8.72v20.62c5-1.19,6.45-2,8.63-4.36,5.05-5.35,9.71-10.61,14.47-16.16,3.47-4,5.16-6,5.16-7.34s-1.29-1.68-3.87-2l-3.57-.4V348c4,.3,7,.5,12.69.5,3.87,0,8.63-.2,12.59-.5v3.17Z" transform="translate(-483.63 -230.71)"/><path class="cls-3" d="M590.35,351.38l-5.15.7c-5.66.79-6,1-6,8.72v45.31c0,7.63.29,7.93,6,8.72l5.15.7v3.37c-4.16-.3-9.81-.5-15.37-.5s-11.2.2-15.36.5v-3.37l5.15-.7c5.55-.79,6-1.09,6-8.72V360.8c0-7.73-.4-7.93-6-8.72l-5.15-.7V348c4.06.3,9.91.5,15.36.5s11.21-.2,15.37-.5Z" transform="translate(-483.63 -230.71)"/><path class="cls-3" d="M663.52,351.38c-5.65.79-6.64,1.19-14.48,9-5.45,5.46-13.38,13.69-18.54,19,6.15,8.43,16.66,22.41,21.72,28.26,4.75,5.45,8.62,7.93,13.58,7.93v3.07a48.64,48.64,0,0,1-6.94.6c-6.15,0-9.62-1.59-15.57-8.73-3.86-4.66-11.2-15.07-18.64-25.88H618.9v21.42c0,7.63.3,7.93,6,8.72l5.16.7v3.37c-4.17-.3-9.82-.5-15.37-.5s-11.2.2-15.37.5v-3.37l5.16-.7c5.55-.79,6-1.09,6-8.72V360.8c0-7.73-.4-7.93-6-8.72l-5.16-.7V348c4.07.3,9.92.5,15.37.5s11.2-.2,15.37-.5v3.37l-5.16.7c-5.65.79-6,1-6,8.72v20.62c5-1.19,6.45-2,8.63-4.36,5.06-5.35,9.72-10.61,14.47-16.16,3.47-4,5.16-6,5.16-7.34s-1.29-1.68-3.87-2l-3.57-.4V348c4,.3,7,.5,12.69.5,3.87,0,8.63-.2,12.6-.5v3.17Z" transform="translate(-483.63 -230.71)"/><path class="cls-3" d="M739.16,351.88c-5.25.79-5.45,1.19-5.45,8.33v32.42c0,17.25-9.22,27.36-27.76,27.36-17.85,0-26.27-9-26.27-26.57V360.8c0-7.14-.2-7.93-5.46-8.82l-4-.6V348c3.67.3,9.22.5,14.27.5,5.26,0,13.49-.2,17.36-.5v3.37l-7.34,1c-5.75.8-6,1.29-6,8.43v31.83c0,15.36,6.94,23,21,23,10.61,0,18.64-6.84,18.64-22.91V360.21c0-7.14-.3-7.34-6-8l-7-.79V348c4.07.3,10.21.5,15.27.5,5.25,0,8.33-.2,11.9-.5v3.37Z" transform="translate(-483.63 -230.71)"/><path class="cls-3" d="M784.08,348c4,.3,8.22.5,12.69.5,3.47,0,7.13-.1,11.3-.5v3.37l-1.39.2c-4.46.59-4.76.69-10.11,9.22-4.36,6.94-11.7,20-14.87,25.88v19.53c0,7.14.29,7.93,5.45,8.62l5.65.8v3.27c-3.57-.3-10.31-.5-15.66-.5-4.57,0-11.51.2-15.08.5v-3.27l5.66-.8c5.15-.69,5.45-1.48,5.45-8.62V386.58L758,359.81c-4.36-7.54-4.56-7.83-9.22-8.33l-1.09-.1V348c4.16.3,8.23.5,13.48.5s10.21-.2,14.18-.5v3.37l-6.34.4c-2.38.1-3.67.69-3.67,2s.69,3,2.28,6.05l11.89,23.1c4.47-8.13,7.94-15.27,11.11-22.51,1.49-3.37,2.28-5.35,2.28-6.34,0-1.59-1.29-2-4.56-2.28l-4.26-.4Z" transform="translate(-483.63 -230.71)"/><path class="cls-3" d="M877.37,415.53v3.37c-3.77-.3-9.12-.5-14.18-.5-5.35,0-10.51.2-14.27.5v-3.37l7.33-.89c2.88-.4,3.77-1.19,3.77-3.38,0-1.68-.6-3.76-2.08-8.32l-3.67-11.21h-23.8l-3.66,11c-1.49,4.46-2.09,6.84-2.09,8.52,0,2.28,1.09,3.18,4.27,3.57l5.55.7v3.37c-4.17-.3-8.43-.5-13.48-.5-4.57,0-7.24.2-11,.5v-3.37l1.39-.2c4.86-.69,5.15-1.39,10.11-14.48,6.35-16.65,12.89-34.4,19.33-52.84h7c7,20.72,16.06,46.4,18.84,54.13,4.36,12.2,4.86,12.5,9.42,13.29Zm-24.49-27.76-10.51-31.63c-3.57,10.31-7.34,21.51-10.61,31.63Z" transform="translate(-483.63 -230.71)"/></svg>