<svg id="レイヤー_1" data-name="レイヤー 1" xmlns="http://www.w3.org/2000/svg" viewBox="0 0 124.83 27.79"><defs><style>.cls-1{fill:#3777FF;}</style></defs><path class="cls-1" d="M97.57,149.53V130.59H90.5v-2.54h17v2.54h-7.11v18.94Z" transform="translate(-90.5 -128.05)"/><path class="cls-1" d="M110.07,149.53V134h2.37v2.36a6.28,6.28,0,0,1,1.68-2.18,2.92,2.92,0,0,1,1.69-.53,5.11,5.11,0,0,1,2.71.85l-.91,2.45a3.77,3.77,0,0,0-1.93-.57,2.51,2.51,0,0,0-1.56.52,2.84,2.84,0,0,0-1,1.44,10.35,10.35,0,0,0-.44,3.07v8.15Z" transform="translate(-90.5 -128.05)"/><path class="cls-1" d="M130.24,147.61a9.88,9.88,0,0,1-2.82,1.76,8.25,8.25,0,0,1-2.91.51,5.68,5.68,0,0,1-3.94-1.25,4.13,4.13,0,0,1-1.38-3.2,4.36,4.36,0,0,1,1.88-3.61A6.44,6.44,0,0,1,123,141a18.68,18.68,0,0,1,2.35-.4,24.23,24.23,0,0,0,4.7-.9c0-.37,0-.6,0-.69a2.93,2.93,0,0,0-.74-2.27,4.42,4.42,0,0,0-3-.9,4.59,4.59,0,0,0-2.74.66,4,4,0,0,0-1.32,2.3l-2.57-.35a6.43,6.43,0,0,1,1.15-2.67,5.14,5.14,0,0,1,2.33-1.57,10.34,10.34,0,0,1,3.53-.55,9.41,9.41,0,0,1,3.24.47,4.18,4.18,0,0,1,1.83,1.18,4.06,4.06,0,0,1,.82,1.79,14.66,14.66,0,0,1,.13,2.43V143a37.68,37.68,0,0,0,.17,4.65,5.91,5.91,0,0,0,.67,1.87h-2.76A5.75,5.75,0,0,1,130.24,147.61Zm-.22-5.89a19.86,19.86,0,0,1-4.31,1,10.07,10.07,0,0,0-2.3.52,2.4,2.4,0,0,0-1,.86,2.31,2.31,0,0,0-.37,1.25,2.25,2.25,0,0,0,.8,1.76,3.44,3.44,0,0,0,2.34.7,5.47,5.47,0,0,0,2.71-.66,4.1,4.1,0,0,0,1.74-1.83,6.2,6.2,0,0,0,.43-2.63Z" transform="translate(-90.5 -128.05)"/><path class="cls-1" d="M146.92,143.83l2.59.34a6.69,6.69,0,0,1-2.17,4.19,6.3,6.3,0,0,1-4.3,1.52,6.67,6.67,0,0,1-5.13-2.09,8.43,8.43,0,0,1-1.95-6,10.78,10.78,0,0,1,.84-4.41,5.81,5.81,0,0,1,2.54-2.83,7.56,7.56,0,0,1,3.71-.95,6.48,6.48,0,0,1,4.15,1.28,6,6,0,0,1,2.07,3.64l-2.57.4a4.22,4.22,0,0,0-1.29-2.36,3.34,3.34,0,0,0-2.25-.79,4.07,4.07,0,0,0-3.24,1.43,6.78,6.78,0,0,0-1.25,4.52,7,7,0,0,0,1.21,4.55,3.89,3.89,0,0,0,3.13,1.42,3.65,3.65,0,0,0,2.59-1A4.65,4.65,0,0,0,146.92,143.83Z" transform="translate(-90.5 -128.05)"/><path class="cls-1" d="M152,149.53V128.05h2.84V138.7l10.67-10.65h3.85l-9,8.71,9.4,12.77H166l-7.64-10.87-3.52,3.43v7.44Z" transform="translate(-90.5 -128.05)"/><path class="cls-1" d="M182.43,144.52l2.72.34a6.64,6.64,0,0,1-2.38,3.7,7.2,7.2,0,0,1-4.46,1.32,7.12,7.12,0,0,1-5.41-2.1,8.23,8.23,0,0,1-2-5.9,8.62,8.62,0,0,1,2-6.09,6.84,6.84,0,0,1,5.25-2.17,6.64,6.64,0,0,1,5.09,2.12,8.45,8.45,0,0,1,2,6c0,.16,0,.39,0,.7h-11.6a6,6,0,0,0,1.45,3.93,4.3,4.3,0,0,0,3.25,1.36,4,4,0,0,0,2.47-.76A5,5,0,0,0,182.43,144.52Zm-8.66-4.26h8.69a5.3,5.3,0,0,0-1-2.95,4.05,4.05,0,0,0-3.26-1.52,4.21,4.21,0,0,0-3.06,1.21A4.86,4.86,0,0,0,173.77,140.26Z" transform="translate(-90.5 -128.05)"/><path class="cls-1" d="M188.35,155.52l-.3-2.48a5.78,5.78,0,0,0,1.51.24A3,3,0,0,0,191,153a2.41,2.41,0,0,0,.86-.82,12.5,12.5,0,0,0,.81-2l.23-.64L187,134h2.84l3.24,9c.42,1.14.8,2.34,1.13,3.6a34.54,34.54,0,0,1,1.08-3.54l3.33-9.07h2.63l-5.91,15.82a31.87,31.87,0,0,1-1.48,3.53,5.14,5.14,0,0,1-1.62,1.91,3.73,3.73,0,0,1-2.16.61A5.38,5.38,0,0,1,188.35,155.52Z" transform="translate(-90.5 -128.05)"/><path class="cls-1" d="M202.41,144.89l2.61-.41a3.62,3.62,0,0,0,1.22,2.4,4.3,4.3,0,0,0,2.81.83,4.06,4.06,0,0,0,2.69-.74,2.19,2.19,0,0,0,.88-1.73,1.6,1.6,0,0,0-.78-1.41,11.65,11.65,0,0,0-2.69-.89,23.88,23.88,0,0,1-4-1.27,3.84,3.84,0,0,1-2.28-3.57,4,4,0,0,1,.48-1.92,4.36,4.36,0,0,1,1.29-1.48,5.5,5.5,0,0,1,1.68-.76,8,8,0,0,1,2.28-.32,9,9,0,0,1,3.21.53,4.36,4.36,0,0,1,2.05,1.43,5.48,5.48,0,0,1,.9,2.41l-2.57.35a2.86,2.86,0,0,0-1-1.88,3.73,3.73,0,0,0-2.38-.67,4.35,4.35,0,0,0-2.6.6,1.76,1.76,0,0,0-.77,1.41,1.49,1.49,0,0,0,.32.92,2.32,2.32,0,0,0,1,.7c.27.1,1,.32,2.33.68a29.92,29.92,0,0,1,3.9,1.22,4,4,0,0,1,1.74,1.38,3.88,3.88,0,0,1,.63,2.26,4.42,4.42,0,0,1-.77,2.48,4.88,4.88,0,0,1-2.22,1.8,8,8,0,0,1-3.28.64,7.31,7.31,0,0,1-4.62-1.26A5.83,5.83,0,0,1,202.41,144.89Z" transform="translate(-90.5 -128.05)"/></svg>