<svg id="レイヤー_1" data-name="レイヤー 1" xmlns="http://www.w3.org/2000/svg" viewBox="0 0 512 269.28"><defs><style>.cls-1{fill:#707070;}</style></defs><path class="cls-1" d="M256,114.69c-141.36,0-256,60.22-256,134.62S114.64,384,256,384s256-60.26,256-134.66S397.36,114.69,256,114.69Zm0,13.43c137.12,0,242.56,57.75,242.56,121.19S393,370.53,256,370.53,13.44,312.75,13.44,249.31,119,128.12,256,128.12Zm-31.09,26.69L199,288.25h28.88l14.9-76.47c23.51,0,33.23-.93,37.5,3.66,4.43,4.75,2.16,10-10,72.81h29.28c12.67-65,18.28-78.76,6.56-89.53-11.15-10.29-34.25-8.47-59.18-8.47l6.87-35.44Zm-121.1,35.53L77.91,323.87H107l6.87-35.46c32.53,0,52.74,2.36,71.41-15.13,20.66-19,26.05-52.79,11.31-69.72-7.68-8.86-20-13.22-36.81-13.22Zm227.07,0L304.94,323.87h29.12l6.88-35.46c34.19,0,53.12,2,71.4-15.13,20.66-19,26.05-52.79,11.32-69.72-7.68-8.86-20.05-13.22-36.82-13.22Zm-181.5,21c18.15.51,28.54,4.35,24.15,27.15-6.25,32.07-28.32,28.75-55.47,28.75l10.85-55.87C136.43,211.41,143.32,211.2,149.38,211.38Zm227.09,0c18.18.51,28.45,4.35,24.06,27.15-6.33,32.53-29,28.75-55.47,28.75l10.85-55.87C363.47,211.41,370.41,211.2,376.47,211.38Z" transform="translate(0 -114.69)"/></svg>