<svg id="レイヤー_1" data-name="レイヤー 1" xmlns="http://www.w3.org/2000/svg" viewBox="0 0 86.45 9.98"><defs><style>.cls-1{fill:#707070;}</style></defs><path class="cls-1" d="M21.84,52.67a10.08,10.08,0,0,0,.1,1.55H20.13a10.27,10.27,0,0,0,.09-1.55V46.12H18.61A12.1,12.1,0,0,0,17,46.2V44.59a11.91,11.91,0,0,0,1.63.09h4.75a12.6,12.6,0,0,0,1.77-.09V46.2a12.87,12.87,0,0,0-1.77-.08h-1.5Z" transform="translate(-16.96 -44.46)"/><path class="cls-1" d="M34.35,44.68a8.45,8.45,0,0,0-.1,1.53v6.47a8.56,8.56,0,0,0,.1,1.54H32.56a9.35,9.35,0,0,0,.09-1.54V50H27.83v2.71a9.52,9.52,0,0,0,.1,1.54H26.14a9.11,9.11,0,0,0,.1-1.54V46.22a9.27,9.27,0,0,0-.1-1.54h1.79a10,10,0,0,0-.1,1.53v2.32h4.82V46.22a9.27,9.27,0,0,0-.09-1.54Z" transform="translate(-16.96 -44.46)"/><path class="cls-1" d="M42.87,54.31a10.29,10.29,0,0,0-1.55-.09H37.58c-.72,0-1,0-1.53,0a8.84,8.84,0,0,0,.1-1.58V46.19a9.62,9.62,0,0,0-.1-1.55c.48,0,.8,0,1.53,0H41.2a12.92,12.92,0,0,0,1.55-.09v1.59a10.66,10.66,0,0,0-1.55-.09H37.74v2.47h2.92a12.59,12.59,0,0,0,1.56-.08v1.57A9.71,9.71,0,0,0,40.66,50H37.73V52.8h3.6a11.51,11.51,0,0,0,1.54-.09Z" transform="translate(-16.96 -44.46)"/><path class="cls-1" d="M48.37,46.2a10.31,10.31,0,0,0-.1-1.56c.48,0,.77,0,1.52,0H52a4.3,4.3,0,0,1,3.24,1,4.83,4.83,0,0,1,1.33,3.64,5.06,5.06,0,0,1-1.41,3.81,4.26,4.26,0,0,1-3.14,1H49.79c-.73,0-1,0-1.52,0a9.8,9.8,0,0,0,.1-1.58Zm3.5,6.61A2.63,2.63,0,0,0,54,52a3.78,3.78,0,0,0,.88-2.66A3.59,3.59,0,0,0,54,46.81a2.72,2.72,0,0,0-2.16-.72H50v6.72Z" transform="translate(-16.96 -44.46)"/><path class="cls-1" d="M65.25,45.68a5.22,5.22,0,0,1,1.34,3.75c0,3-1.76,5-4.49,5s-4.47-2-4.47-5A5.15,5.15,0,0,1,59,45.68a4.15,4.15,0,0,1,3.09-1.19A4.24,4.24,0,0,1,65.25,45.68Zm-.34,3.75a3.9,3.9,0,0,0-.95-2.8,2.58,2.58,0,0,0-1.84-.73c-1.73,0-2.82,1.37-2.82,3.54a3.93,3.93,0,0,0,1,2.83,2.59,2.59,0,0,0,1.86.73C63.84,53,64.91,51.63,64.91,49.43Z" transform="translate(-16.96 -44.46)"/><path class="cls-1" d="M74.25,54.22a13.94,13.94,0,0,0-.77-1.28l-3.1-4.66c-.22-.36-.52-.88-.81-1.44,0,.16,0,.16.05.61,0,.23,0,.77,0,1v3.93a13.07,13.07,0,0,0,.1,1.8H68a13.07,13.07,0,0,0,.09-1.81V46.22A10.22,10.22,0,0,0,68,44.68h1.87A6.48,6.48,0,0,0,70.6,46l3,4.57c.29.43.68,1,.94,1.53,0-.46-.08-1.18-.08-1.69v-4a10.51,10.51,0,0,0-.1-1.65h1.75a10.6,10.6,0,0,0-.1,1.65v6.35a9.11,9.11,0,0,0,.1,1.54Z" transform="translate(-16.96 -44.46)"/><path class="cls-1" d="M86.1,44.68a9.75,9.75,0,0,0-.1,1.63v4.26c0,2.48-1.47,3.87-4.08,3.87a4.13,4.13,0,0,1-3.1-1.13,3.87,3.87,0,0,1-.9-2.76V46.32a10.17,10.17,0,0,0-.09-1.64h1.78a9.64,9.64,0,0,0-.09,1.64v4.23a2.45,2.45,0,1,0,4.89,0V46.32a8.83,8.83,0,0,0-.1-1.64Z" transform="translate(-16.96 -44.46)"/><path class="cls-1" d="M92,52.67a10.19,10.19,0,0,0,.09,1.55H90.29a10.17,10.17,0,0,0,.1-1.55V46.12H88.77a11.94,11.94,0,0,0-1.64.08V44.59a11.81,11.81,0,0,0,1.63.09h4.75a12.53,12.53,0,0,0,1.76-.09V46.2a12.7,12.7,0,0,0-1.76-.08H92Z" transform="translate(-16.96 -44.46)"/><path class="cls-1" d="M97.72,51.25a1.67,1.67,0,0,0,.34,1,2.1,2.1,0,0,0,1.75.71c1.2,0,1.92-.54,1.92-1.44a1.21,1.21,0,0,0-.6-1.1A8,8,0,0,0,99,49.88a4.12,4.12,0,0,1-1.81-.73,2.37,2.37,0,0,1-.93-1.94c0-1.67,1.35-2.75,3.41-2.75a3.55,3.55,0,0,1,3,1.21,3.36,3.36,0,0,1,.59,1.39l-1.72.21a1.55,1.55,0,0,0-.36-.85,1.87,1.87,0,0,0-1.5-.58c-1,0-1.75.53-1.75,1.31a1.14,1.14,0,0,0,.82,1.09,10,10,0,0,0,1.69.43,5.4,5.4,0,0,1,2,.73,2.38,2.38,0,0,1,1,2.07,2.78,2.78,0,0,1-.76,2,3.93,3.93,0,0,1-2.87.92,4.72,4.72,0,0,1-2.51-.63,2.82,2.82,0,0,1-1.06-1.37,4.27,4.27,0,0,1-.23-1Z" transform="translate(-16.96 -44.46)"/></svg>