<svg id="レイヤー_1" data-name="レイヤー 1" xmlns="http://www.w3.org/2000/svg" viewBox="0 0 2500 628.79"><defs><style>.cls-1{fill:#707070;}</style></defs><path class="cls-1" d="M807.25,246c0-44.85-43.61-92.48-119.08-92.48-84.74,0-177.84,62.17-192.07,186.2-14.53,125.26,63.41,180.93,142,180.93S757.76,490,799.83,449.2c-36.19-45.47-82.89-24.44-91.86-19.8-9.9,5-22.58,11.75-48.56,11.75-30.31,0-61.24-13.6-61.24-70.2,194.23-19.18,209.08-80.11,209.08-125Zm-96.19,7.43c-1.24,13.91-6.8,37.73-105.16,51,20.72-73.61,60.31-79.18,78.56-79.18C701.47,225.27,712.3,238.57,711.06,253.42ZM382,265.48s-41.75,131.14-45.15,142C335.58,396.31,305,160.94,305,160.94c-71.14,0-109.18,50.72-129.28,104.23,0,0-50.73,131.45-55.06,142.58-.31-10.21-7.73-141-7.73-141C108.56,201.14,48.56,161.25,0,161.25L58.77,517.86c74.53-.31,114.74-50.72,135.77-104.23,0,0,44.85-116,46.71-121.24.31,4.94,32.16,225.47,32.16,225.47,74.85,0,115.06-47.32,136.71-99L515,161.25c-73.92,0-112.89,50.41-133,104.23ZM1081.9,152.9c-46.08,0-81.34,25-111,61.85v-.31L997.46.11c-61.24,0-111,53.19-120.62,132.37l-46.39,382.6c35.26,0,72.68-10.21,92.78-36.19,17.94,23.2,44.85,41.75,84.75,41.75,103.3,0,174.13-120,174.13-232.58-.62-102.69-50.41-135.16-100.21-135.16Zm-9.59,184c-10.82,62.79-45.77,105.47-79.49,105.47-34,0-48.55-15.15-48.55-15.15,6.49-55.06,10.51-88.77,22.88-117.84s41.76-75.47,72.38-75.47c30,0,43.61,39.9,32.78,103Zm367.75-175.67H1368l.31-3.72c5-47,16.09-71.75,52.89-75.77,25.06-2.48,36.19-15.47,39-29.69,2.17-11.14,9-49.8,9-49.8-144.75-.93-190.21,61.55-202,156.81l-.31,2.17h-1.55c-23.51,0-49.49,26.6-53.82,60.31L1210,233.93h48.25l-40.52,334.65-12.37,60c1.54,0,3.4.3,5,.3,67.73-2.47,111-56,120.62-133.61l31.55-261.35H1385c22.26,0,48.25-22.27,52.88-59.38Zm374.86-6.19c-83.2,0-161.76,61.24-185.88,157.43s12.37,210,134.85,210c122.17,0,192.69-118.46,192.69-217.12,0-98-66.5-150.32-141.66-150.32Zm33.71,178.77c-4.33,43.61-23.5,109.8-76.08,109.8-52.89,0-45.47-77.32-40.21-114.13,5.57-39.28,27.53-95.26,74.85-95.26,42.37,0,46.39,50.41,41.44,99.59Zm519-68.35s-41.75,131.14-45.15,142c-1.24-11.13-31.86-246.5-31.86-246.5-71.14,0-109.18,50.72-129.28,104.23,0,0-50.73,131.45-55.06,142.58-.31-10.21-7.73-141-7.73-141-4.33-65.57-64.33-105.46-112.89-105.46l58.46,356.61c74.53-.31,114.74-50.72,135.77-104.23,0,0,44.85-116,46.4-121.24.62,4.94,32.16,225.47,32.16,225.47,74.85,0,115.06-47.32,136.71-99L2500,161.25c-73.61,0-112.58,50.41-132.38,104.23ZM1508.1,2.27l-60.62,489-12.37,60.31c1.55,0,3.4.31,5,.31,65.26-.93,111.65-58.15,120.31-130.21l35-280.53c10.52-85.67-40.51-138.87-87.22-138.87Z" transform="translate(0 -0.11)"/></svg>