<svg xmlns="http://www.w3.org/2000/svg" viewBox="0 0 512 512"><defs><style>.cls-1{fill:#707070;}</style></defs><g id="レイヤー_2" data-name="レイヤー 2"><g id="レイヤー_1-2" data-name="レイヤー 1"><path class="cls-1" d="M0,0V512H512V0ZM482,482H30V30H482Z"/><polygon class="cls-1" points="139.68 340 176.17 340 206.19 288 236.21 340 272.7 340 273.04 339.8 224.66 256 273.04 172.2 272.7 172 236.21 172 206.19 224 176.17 172 139.68 172 139.33 172.2 187.71 256 139.33 339.8 139.68 340"/><path class="cls-1" d="M372.67,234.84l-.48-.41V172h-32v48.42a60,60,0,1,0,2.38,118.83l.39-.06.23,0h0a59.78,59.78,0,0,0,29.48-14Zm-40,76.16a31.5,31.5,0,1,1,8-62v61A31.63,31.63,0,0,1,332.69,311Z"/></g></g></svg>